<?xml version="1.0" encoding="UTF-8" standalone="no"?>
<!-- Created with Inkscape (http://www.inkscape.org/) -->

<svg
   xmlns:dc="http://purl.org/dc/elements/1.1/"
   xmlns:cc="http://creativecommons.org/ns#"
   xmlns:rdf="http://www.w3.org/1999/02/22-rdf-syntax-ns#"
   xmlns:svg="http://www.w3.org/2000/svg"
   xmlns="http://www.w3.org/2000/svg"
   xmlns:sodipodi="http://sodipodi.sourceforge.net/DTD/sodipodi-0.dtd"
   xmlns:inkscape="http://www.inkscape.org/namespaces/inkscape"
   width="20"
   height="17"
   id="svg2"
   version="1.1"
   inkscape:version="0.48.3.1 r9886"
   sodipodi:docname="publickey.svg"
   inkscape:export-filename="/home/braydon/bitflow/bitflowui/publickey.png"
   inkscape:export-xdpi="72"
   inkscape:export-ydpi="72">
  <defs
     id="defs4" />
  <sodipodi:namedview
     id="base"
     pagecolor="#ffffff"
     bordercolor="#666666"
     borderopacity="1.0"
     inkscape:pageopacity="0.0"
     inkscape:pageshadow="2"
     inkscape:zoom="9.2385038"
     inkscape:cx="44.701161"
     inkscape:cy="20.416967"
     inkscape:document-units="px"
     inkscape:current-layer="layer1"
     showgrid="false"
     inkscape:window-width="1317"
     inkscape:window-height="744"
     inkscape:window-x="49"
     inkscape:window-y="24"
     inkscape:window-maximized="1" />
  <metadata
     id="metadata7">
    <rdf:RDF>
      <cc:Work
         rdf:about="">
        <dc:format>image/svg+xml</dc:format>
        <dc:type
           rdf:resource="http://purl.org/dc/dcmitype/StillImage" />
        <dc:title></dc:title>
      </cc:Work>
    </rdf:RDF>
  </metadata>
  <g
     inkscape:label="Layer 1"
     inkscape:groupmode="layer"
     id="layer1"
     transform="translate(0,-1035.3622)">
    <path
       style="color:#000000;fill:#000000;fill-opacity:1;stroke:none;stroke-width:5;marker:none;visibility:visible;display:inline;overflow:visible;enable-background:accumulate"
       d="m 4.7196554,1039.4458 c -2.324411,0.044 -2.865062,2.3528 -2.917559,4.3173 -0.05355,2.0037 0.553596,4.6515 3.008395,4.6515 2.459396,0 2.805485,-3.6559 2.805485,-3.6559 l 3.2364536,0 0,2.7713 1.499907,0 0,-2.8239 1.273779,0 0,2.8239 1.527381,0 0,-2.7713 1.326059,0 0,2.7713 1.551784,0 0,-4.4984 -10.4153636,0 c 0,0 -0.286183,-3.5785 -2.896321,-3.5858 z m -0.01437,1.6044 c 0.857719,0 1.517973,1.1514 1.551784,2.7836 0.0285,1.3759 -0.335364,3.0294 -1.470981,2.9908 -1.125535,-0.038 -1.578718,-1.1874 -1.605652,-3.0353 -0.02379,-1.6323 0.667131,-2.7391 1.524849,-2.7391 z"
       id="path2985"
       inkscape:connector-curvature="0"
       sodipodi:nodetypes="csscccccccccccccccsssss" />
  </g>
</svg>
